# xmcd CD database file
#
# Track frame offsets:
#	150
#	13169
#	45719
#	71602
#	92550
#	125492
#	156501
#	161498
#	193851
#	228049
#	244611
#	258624
#
# Disc length: 3805 seconds
#
# Revision: 1
# Processed by: cddbd v1.5.2PL0 Copyright (c) Steve Scherf et al.
# Submitted via: CDex 1.51
#
DISCID=9f0edb0c
DTITLE=Face da Morte - Manifesto Popular Brasileiro
DYEAR=2000
DGENRE=Rap
TTITLE0=Fazendo Escola
TTITLE1=Julgamento
TTITLE2=Anos de Chumbo
TTITLE3=Churrrasco
TTITLE4=Caravana
TTITLE5=Mudar o Mundo
TTITLE6=Eu Sou Lavrador
TTITLE7=Caipira
TTITLE8=Janeiro/Fevereiro/Marco
TTITLE9=Abril/Maio/Junho
TTITLE10=Julho/Agosto/Setembro
TTITLE11=Outubro/Novembro/Dezembro
EXTD=YEAR: 2000
EXTT0=
EXTT1=
EXTT2=
EXTT3=
EXTT4=
EXTT5=
EXTT6=
EXTT7=
EXTT8=
EXTT9=
EXTT10=
EXTT11=
PLAYORDER=
